PathFileType	4	(X/Y/Z)	c:/Users/goper/Files/vsCode/490R/osim_files/C15/C15_Fast_07.trc
DataRate	CameraRate	NumFrames	NumMarkers	Units                	OrigDataRate	OrigDataStartFrame	OrigNumFrames
250.00	250.00	11	36	mm	250.0	950	2531
                Frame#	Time	LPSIS			LASIS			LTH1			LTH2			LTH3			LTH4			LLFE			LMFE			LSH1			LSH2			LSH3			LSH4			LLMAL			LMMAL			LCAL			LMTP5			LTOE			LMTP1			RPSIS			RASIS			RTH1			RTH2			RTH3			RTH4			RLFE			RMFE			RSH1			RSH2			RSH3			RSH4			RLMAL			RMMAL			RCAL			RMTP1			RTOE			RMTP5		
		X1	Y1	Z1	X2	Y2	Z2	X3	Y3	Z3	X4	Y4	Z4	X5	Y5	Z5	X6	Y6	Z6	X7	Y7	Z7	X8	Y8	Z8	X9	Y9	Z9	X10	Y10	Z10	X11	Y11	Z11	X12	Y12	Z12	X13	Y13	Z13	X14	Y14	Z14	X15	Y15	Z15	X16	Y16	Z16	X17	Y17	Z17	X18	Y18	Z18	X19	Y19	Z19	X20	Y20	Z20	X21	Y21	Z21	X22	Y22	Z22	X23	Y23	Z23	X24	Y24	Z24	X25	Y25	Z25	X26	Y26	Z26	X27	Y27	Z27	X28	Y28	Z28	X29	Y29	Z29	X30	Y30	Z30	X31	Y31	Z31	X32	Y32	Z32	X33	Y33	Z33	X34	Y34	Z34	X35	Y35	Z35	X36	Y36	Z36

950	3.79600	2071.01074	1023.09320	289.74719	0.00000	0.00000	0.00000	1940.98462	601.00562	405.35263	1935.98889	556.36951	388.68646	1892.28369	617.33752	401.08044	0.00000	0.00000	0.00000	0.00000	0.00000	0.00000	1917.59619	488.58105	366.88120	0.00000	0.00000	0.00000	1986.82263	337.17169	380.51428	1924.13306	374.89758	377.65042	1932.31506	330.53986	379.49850	0.00000	0.00000	0.00000	2182.07349	255.89464	99.79829	0.00000	0.00000	0.00000	0.00000	0.00000	0.00000	-752.24091	734.71802	2361.54688	0.00000	0.00000	0.00000	2073.03076	1018.20551	169.02779	0.00000	0.00000	0.00000	0.00000	0.00000	0.00000	0.00000	0.00000	0.00000	0.00000	0.00000	0.00000	0.00000	0.00000	0.00000	0.00000	0.00000	0.00000	0.00000	0.00000	0.00000	0.00000	0.00000	0.00000	2136.24487	236.24326	180.34566	0.00000	0.00000	0.00000	0.00000	0.00000	0.00000	1966.12842	474.31119	51.19798	0.00000	0.00000	0.00000	0.00000	0.00000	0.00000	0.00000	0.00000	0.00000	0.00000	0.00000	0.00000	0.00000	0.00000	0.00000
951	3.80000	2066.77271	1023.51147	290.06229	0.00000	0.00000	0.00000	1940.31592	602.43860	405.25079	1934.41870	556.44891	388.78098	1890.34253	617.18707	401.25305	0.00000	0.00000	0.00000	0.00000	0.00000	0.00000	1916.39197	488.46732	367.06805	0.00000	0.00000	0.00000	1986.32153	337.27979	380.56665	1923.51343	374.81882	377.88446	1930.87988	329.80518	378.22745	0.00000	0.00000	0.00000	2171.44971	254.25249	100.09503	0.00000	0.00000	0.00000	0.00000	0.00000	0.00000	-752.28363	734.69287	2361.55444	0.00000	0.00000	0.00000	2068.58813	1018.78741	169.33228	0.00000	0.00000	0.00000	0.00000	0.00000	0.00000	0.00000	0.00000	0.00000	0.00000	0.00000	0.00000	0.00000	0.00000	0.00000	0.00000	0.00000	0.00000	0.00000	0.00000	0.00000	0.00000	0.00000	0.00000	2125.64819	235.39133	180.76978	0.00000	0.00000	0.00000	0.00000	0.00000	0.00000	1957.71143	474.69308	51.80176	0.00000	0.00000	0.00000	0.00000	0.00000	0.00000	0.00000	0.00000	0.00000	0.00000	0.00000	0.00000	0.00000	0.00000	0.00000
952	3.80400	2062.53735	1023.91870	290.33228	0.00000	0.00000	0.00000	1937.42578	601.27740	405.55417	1932.94543	556.62347	388.91183	1888.49841	617.13379	401.43753	0.00000	0.00000	0.00000	0.00000	0.00000	0.00000	1915.14246	488.41309	367.22845	0.00000	0.00000	0.00000	1985.74866	337.39291	380.68378	1922.86011	374.76950	378.12805	1931.17505	330.47791	379.85059	0.00000	0.00000	0.00000	2160.77539	252.43092	100.39256	0.00000	0.00000	0.00000	0.00000	0.00000	0.00000	-752.22174	734.76965	2361.53931	0.00000	0.00000	0.00000	2064.10425	1019.34802	169.62323	0.00000	0.00000	0.00000	0.00000	0.00000	0.00000	0.00000	0.00000	0.00000	0.00000	0.00000	0.00000	0.00000	0.00000	0.00000	0.00000	0.00000	0.00000	0.00000	0.00000	0.00000	0.00000	0.00000	0.00000	2114.90625	234.27277	181.19989	0.00000	0.00000	0.00000	0.00000	0.00000	0.00000	1949.22217	474.87726	52.33704	0.00000	0.00000	0.00000	0.00000	0.00000	0.00000	0.00000	0.00000	0.00000	0.00000	0.00000	0.00000	0.00000	0.00000	0.00000
953	3.80800	2058.31250	1024.34631	290.60873	0.00000	0.00000	0.00000	1935.76392	601.49487	405.64505	1931.45398	556.72314	389.00037	1886.67078	617.02118	401.59967	0.00000	0.00000	0.00000	0.00000	0.00000	0.00000	1913.89368	488.31573	367.41626	0.00000	0.00000	0.00000	1985.07654	337.50180	380.87268	1922.14258	374.75912	378.36465	1930.47705	330.47205	380.06589	0.00000	0.00000	0.00000	2149.93970	250.34142	100.65604	0.00000	0.00000	0.00000	0.00000	0.00000	0.00000	-752.24573	734.75079	2361.54834	0.00000	0.00000	0.00000	2059.68896	1019.95135	169.87192	0.00000	0.00000	0.00000	0.00000	0.00000	0.00000	1815.36206	644.33954	42.17200	0.00000	0.00000	0.00000	0.00000	0.00000	0.00000	0.00000	0.00000	0.00000	1861.46655	584.36450	38.65380	0.00000	0.00000	0.00000	2104.05908	233.03990	181.63272	0.00000	0.00000	0.00000	0.00000	0.00000	0.00000	1940.77197	475.02005	52.82027	0.00000	0.00000	0.00000	0.00000	0.00000	0.00000	1970.30457	440.11490	46.34006	0.00000	0.00000	0.00000	0.00000	0.00000	0.00000
954	3.81200	2054.08252	1024.72595	290.84116	0.00000	0.00000	0.00000	1934.08398	601.66418	405.73694	1930.02856	556.92828	389.18866	1884.87280	616.91394	401.82751	0.00000	0.00000	0.00000	0.00000	0.00000	0.00000	1913.08960	488.50305	368.46756	0.00000	0.00000	0.00000	1984.35474	337.62726	381.09464	1921.32434	374.67453	378.58905	1929.78491	330.49316	380.29370	0.00000	0.00000	0.00000	2138.98804	248.10699	100.94769	0.00000	0.00000	0.00000	0.00000	0.00000	0.00000	-752.24817	734.76581	2361.53931	0.00000	0.00000	0.00000	2055.23193	1020.44189	170.13373	0.00000	0.00000	0.00000	0.00000	0.00000	0.00000	1808.37048	646.22882	42.46435	0.00000	0.00000	0.00000	0.00000	0.00000	0.00000	0.00000	0.00000	0.00000	1854.48230	586.32416	39.21932	0.00000	0.00000	0.00000	2093.10547	231.61441	182.08517	0.00000	0.00000	0.00000	0.00000	0.00000	0.00000	1932.40442	475.10986	53.30855	0.00000	0.00000	0.00000	0.00000	0.00000	0.00000	0.00000	0.00000	0.00000	1961.52002	439.97464	46.85239	0.00000	0.00000	0.00000
955	3.81600	2049.88330	1025.08582	291.08102	0.00000	0.00000	0.00000	1932.43237	601.84528	405.84915	1928.59436	557.04626	389.33658	1883.11011	616.84650	402.04080	0.00000	0.00000	0.00000	0.00000	0.00000	0.00000	1911.95642	488.49240	368.75043	0.00000	0.00000	0.00000	1983.59204	337.72076	381.37009	1920.43469	374.63181	378.77521	1929.00806	330.54102	380.53485	0.00000	0.00000	0.00000	2128.02417	245.68576	101.25916	0.00000	0.00000	0.00000	0.00000	0.00000	0.00000	-752.14252	734.81256	2361.52734	0.00000	0.00000	0.00000	2050.81323	1020.95129	170.37715	0.00000	0.00000	0.00000	0.00000	0.00000	0.00000	1801.35742	648.00677	42.79609	0.00000	0.00000	0.00000	0.00000	0.00000	0.00000	0.00000	0.00000	0.00000	1847.41638	588.19183	39.76006	0.00000	0.00000	0.00000	2082.04907	229.98315	182.54797	0.00000	0.00000	0.00000	0.00000	0.00000	0.00000	1924.07117	475.11420	53.76761	0.00000	0.00000	0.00000	0.00000	0.00000	0.00000	1636.95691	345.79071	169.14259	0.00000	0.00000	0.00000	0.00000	0.00000	0.00000
956	3.82000	2045.64880	1025.38208	291.31186	0.00000	0.00000	0.00000	1930.68115	601.93689	405.93796	1927.04590	557.11554	389.42627	1881.41956	616.75793	402.27808	0.00000	0.00000	0.00000	0.00000	0.00000	0.00000	1910.45056	488.21616	368.17926	0.00000	0.00000	0.00000	1982.82373	337.82819	381.63409	1919.62805	374.61169	379.03250	1927.68994	330.27304	379.45612	0.00000	0.00000	0.00000	2116.89722	243.05235	101.55717	0.00000	0.00000	0.00000	0.00000	0.00000	0.00000	-752.18866	734.79266	2361.53833	0.00000	0.00000	0.00000	2046.39026	1021.43463	170.59714	0.00000	0.00000	0.00000	0.00000	0.00000	0.00000	1794.35779	649.88342	43.48513	0.00000	0.00000	0.00000	0.00000	0.00000	0.00000	0.00000	0.00000	0.00000	1840.51147	590.09589	40.29256	0.00000	0.00000	0.00000	2070.93652	228.24472	183.04794	0.00000	0.00000	0.00000	0.00000	0.00000	0.00000	1915.76990	475.04099	54.21210	0.00000	0.00000	0.00000	0.00000	0.00000	0.00000	0.00000	0.00000	0.00000	1909.88342	407.13272	44.30554	0.00000	0.00000	0.00000
957	3.82400	2041.45459	1025.67957	291.54099	0.00000	0.00000	0.00000	1929.02051	602.11993	406.05469	1925.58569	557.22076	389.58374	1879.61987	616.59692	402.49130	0.00000	0.00000	0.00000	0.00000	0.00000	0.00000	1909.29529	488.17566	368.45633	0.00000	0.00000	0.00000	1982.02148	337.92377	381.84195	1918.78040	374.59698	379.23560	1926.96265	330.42987	379.70248	0.00000	0.00000	0.00000	2105.74316	240.29820	101.95560	0.00000	0.00000	0.00000	0.00000	0.00000	0.00000	-752.11731	734.76996	2361.52490	0.00000	0.00000	0.00000	2041.94128	1021.83838	170.82149	0.00000	0.00000	0.00000	0.00000	0.00000	0.00000	1787.51990	651.49353	43.49568	0.00000	0.00000	0.00000	0.00000	0.00000	0.00000	0.00000	0.00000	0.00000	1833.53662	591.87952	40.80140	0.00000	0.00000	0.00000	2059.68848	226.35356	183.53456	0.00000	0.00000	0.00000	0.00000	0.00000	0.00000	1907.59192	474.99402	54.67805	0.00000	0.00000	0.00000	0.00000	0.00000	0.00000	1935.54138	439.26593	48.51454	0.00000	0.00000	0.00000	0.00000	0.00000	0.00000
958	3.82800	2037.25781	1025.96558	291.74023	0.00000	0.00000	0.00000	1927.42651	602.33966	406.17300	1924.10266	557.34662	389.70602	1877.89587	616.48389	402.76019	0.00000	0.00000	0.00000	0.00000	0.00000	0.00000	1908.19116	488.18378	368.69568	0.00000	0.00000	0.00000	1981.22144	338.04755	382.03439	1917.92639	374.57025	379.41687	1926.27222	330.54639	379.90775	0.00000	0.00000	0.00000	2094.44873	237.29066	102.28737	0.00000	0.00000	0.00000	0.00000	0.00000	0.00000	-752.17383	734.71649	2361.53784	0.00000	0.00000	0.00000	2037.54553	1022.24048	171.03601	0.00000	0.00000	0.00000	0.00000	0.00000	0.00000	0.00000	0.00000	0.00000	1780.59094	653.19061	43.97567	0.00000	0.00000	0.00000	2144.60522	267.07907	157.30611	0.00000	0.00000	0.00000	0.00000	0.00000	0.00000	2048.41431	224.38281	184.03334	0.00000	0.00000	0.00000	0.00000	0.00000	0.00000	1899.48914	474.87292	55.08900	0.00000	0.00000	0.00000	0.00000	0.00000	0.00000	1927.11536	439.12311	49.11711	0.00000	0.00000	0.00000	0.00000	0.00000	0.00000
959	3.83200	2033.08459	1026.20093	291.90833	0.00000	0.00000	0.00000	1925.73914	602.52307	406.25598	1922.60767	557.48883	389.88287	1876.34949	616.41492	403.10620	0.00000	0.00000	0.00000	0.00000	0.00000	0.00000	1907.05286	488.20337	368.95438	0.00000	0.00000	0.00000	1980.52466	338.25272	382.18121	1917.09460	374.54495	379.59778	1925.53296	330.63120	380.06119	2134.11499	262.89368	157.46599	2083.01929	234.15198	102.61383	0.00000	0.00000	0.00000	0.00000	0.00000	0.00000	-752.20728	734.70654	2361.55127	0.00000	0.00000	0.00000	2033.08960	1022.58508	171.20102	0.00000	0.00000	0.00000	0.00000	0.00000	0.00000	1773.75073	654.85260	44.47078	0.00000	0.00000	0.00000	0.00000	0.00000	0.00000	0.00000	0.00000	0.00000	1819.80664	595.40112	41.74405	0.00000	0.00000	0.00000	2036.97095	222.25201	184.48836	0.00000	0.00000	0.00000	0.00000	0.00000	0.00000	1891.33911	474.63702	55.47104	0.00000	0.00000	0.00000	0.00000	0.00000	0.00000	1918.59595	438.78207	49.63295	0.00000	0.00000	0.00000	0.00000	0.00000	0.00000
960	3.83600	2028.87903	1026.40942	292.05591	0.00000	0.00000	0.00000	1923.98352	602.69952	406.35132	1921.18335	557.70776	390.06750	1874.81262	616.21979	403.45969	0.00000	0.00000	0.00000	0.00000	0.00000	0.00000	1905.82910	488.14508	369.12460	0.00000	0.00000	0.00000	1979.84534	338.42554	382.29025	1916.29248	374.55865	379.76935	1928.07849	330.01193	383.02359	2123.46069	258.44760	157.63837	2071.47363	230.82095	102.94526	0.00000	0.00000	0.00000	0.00000	0.00000	0.00000	-752.15112	734.71326	2361.53784	0.00000	0.00000	0.00000	2028.68323	1022.92725	171.32419	0.00000	0.00000	0.00000	0.00000	0.00000	0.00000	0.00000	0.00000	0.00000	1861.17517	634.65674	44.10104	0.00000	0.00000	0.00000	1884.36157	-58.46250	46.54205	0.00000	0.00000	0.00000	0.00000	0.00000	0.00000	2025.39124	219.95050	184.96869	0.00000	0.00000	0.00000	0.00000	0.00000	0.00000	1883.18774	474.23065	55.81792	0.00000	0.00000	0.00000	0.00000	0.00000	0.00000	1910.15344	438.35339	50.22355	0.00000	0.00000	0.00000	0.00000	0.00000	0.00000
